<svg xmlns="http://www.w3.org/2000/svg" width="800" height="600" fill="none" stroke="#007AFF" stroke-width="1.2" stroke-linecap="round" stroke-linejoin="round">
  <!-- Row 1 -->
  <g opacity="0.13" transform="translate(30,30) rotate(10)"><path d="M12 20s-7-5.75-7-10.25A4.75 4.75 0 0 1 9.75 5 4.7 4.7 0 0 1 12 5.86 4.7 4.7 0 0 1 14.25 5A4.75 4.75 0 0 1 19 9.75C19 14.25 12 20 12 20z" transform="scale(1.4)"/></g>
  <g opacity="0.10" transform="translate(140,50) rotate(0)"><path d="M9 3h6v6h6v6h-6v6H9v-6H3V9h6z" transform="scale(1.3)"/></g>
  <g opacity="0.12" transform="translate(260,20) rotate(25)"><path d="M10.5 2.5 5 8a4.95 4.95 0 1 0 7 7l5.5-5.5a4.95 4.95 0 0 0-7-7zM8.5 8.5l7 7" transform="scale(1.2)"/></g>
  <g opacity="0.11" transform="translate(380,45) rotate(0)"><path d="M3 12h4l2-6 4 12 2-6h6" transform="scale(1.5)"/></g>
  <g opacity="0.13" transform="translate(500,25) rotate(-15)"><path d="M12 2l8 4v6c0 5.25-3.5 8.75-8 10-4.5-1.25-8-4.75-8-10V6zM12 8v6M9 11h6" transform="scale(1.3)"/></g>
  <g opacity="0.10" transform="translate(620,50) rotate(40)"><path d="M18 2l4 4-3 3-7-7zM12 8l-8 8v4h4l8-8M2 22l4-4" transform="scale(1.2)"/></g>
  <g opacity="0.12" transform="translate(730,30) rotate(5)"><path d="M9 2h6l1 2H8zM8 4H6a2 2 0 0 0-2 2v14a2 2 0 0 0 2 2h12a2 2 0 0 0 2-2V6a2 2 0 0 0-2-2h-2M9 12h6M9 16h4" transform="scale(1.3)"/></g>

  <!-- Row 2 -->
  <g opacity="0.11" transform="translate(80,140) rotate(30)"><path d="M18 2l4 4-3 3-7-7zM12 8l-8 8v4h4l8-8M2 22l4-4" transform="scale(1.3)"/></g>
  <g opacity="0.13" transform="translate(200,120) rotate(0)"><path d="M12 2l8 4v6c0 5.25-3.5 8.75-8 10-4.5-1.25-8-4.75-8-10V6zM12 8v6M9 11h6" transform="scale(1.4)"/></g>
  <g opacity="0.10" transform="translate(320,145) rotate(-20)"><path d="M12 20s-7-5.75-7-10.25A4.75 4.75 0 0 1 9.75 5 4.7 4.7 0 0 1 12 5.86 4.7 4.7 0 0 1 14.25 5A4.75 4.75 0 0 1 19 9.75C19 14.25 12 20 12 20z" transform="scale(1.2)"/></g>
  <g opacity="0.12" transform="translate(450,125) rotate(15)"><path d="M9 2h6l1 2H8zM8 4H6a2 2 0 0 0-2 2v14a2 2 0 0 0 2 2h12a2 2 0 0 0 2-2V6a2 2 0 0 0-2-2h-2M9 12h6M9 16h4" transform="scale(1.3)"/></g>
  <g opacity="0.11" transform="translate(570,140) rotate(0)"><path d="M10.5 2.5 5 8a4.95 4.95 0 1 0 7 7l5.5-5.5a4.95 4.95 0 0 0-7-7zM8.5 8.5l7 7" transform="scale(1.4)"/></g>
  <g opacity="0.13" transform="translate(700,120) rotate(-10)"><path d="M3 12h4l2-6 4 12 2-6h6" transform="scale(1.3)"/></g>

  <!-- Row 3 -->
  <g opacity="0.12" transform="translate(20,250) rotate(-5)"><path d="M10.5 2.5 5 8a4.95 4.95 0 1 0 7 7l5.5-5.5a4.95 4.95 0 0 0-7-7zM8.5 8.5l7 7" transform="scale(1.3)"/></g>
  <g opacity="0.10" transform="translate(150,270) rotate(20)"><path d="M3 12h4l2-6 4 12 2-6h6" transform="scale(1.4)"/></g>
  <g opacity="0.13" transform="translate(280,240) rotate(0)"><path d="M9 3h6v6h6v6h-6v6H9v-6H3V9h6z" transform="scale(1.2)"/></g>
  <g opacity="0.11" transform="translate(400,265) rotate(35)"><path d="M18 2l4 4-3 3-7-7zM12 8l-8 8v4h4l8-8M2 22l4-4" transform="scale(1.3)"/></g>
  <g opacity="0.12" transform="translate(530,245) rotate(0)"><path d="M12 20s-7-5.75-7-10.25A4.75 4.75 0 0 1 9.75 5 4.7 4.7 0 0 1 12 5.86 4.7 4.7 0 0 1 14.25 5A4.75 4.75 0 0 1 19 9.75C19 14.25 12 20 12 20z" transform="scale(1.3)"/></g>
  <g opacity="0.10" transform="translate(660,270) rotate(-25)"><path d="M12 2l8 4v6c0 5.25-3.5 8.75-8 10-4.5-1.25-8-4.75-8-10V6zM12 8v6M9 11h6" transform="scale(1.2)"/></g>
  <g opacity="0.13" transform="translate(760,250) rotate(10)"><path d="M9 2h6l1 2H8zM8 4H6a2 2 0 0 0-2 2v14a2 2 0 0 0 2 2h12a2 2 0 0 0 2-2V6a2 2 0 0 0-2-2h-2M9 12h6M9 16h4" transform="scale(1.1)"/></g>

  <!-- Row 4 -->
  <g opacity="0.11" transform="translate(100,370) rotate(15)"><path d="M9 3h6v6h6v6h-6v6H9v-6H3V9h6z" transform="scale(1.3)"/></g>
  <g opacity="0.12" transform="translate(230,390) rotate(0)"><path d="M10.5 2.5 5 8a4.95 4.95 0 1 0 7 7l5.5-5.5a4.95 4.95 0 0 0-7-7zM8.5 8.5l7 7" transform="scale(1.2)"/></g>
  <g opacity="0.10" transform="translate(350,365) rotate(-30)"><path d="M9 2h6l1 2H8zM8 4H6a2 2 0 0 0-2 2v14a2 2 0 0 0 2 2h12a2 2 0 0 0 2-2V6a2 2 0 0 0-2-2h-2M9 12h6M9 16h4" transform="scale(1.4)"/></g>
  <g opacity="0.13" transform="translate(480,385) rotate(5)"><path d="M12 20s-7-5.75-7-10.25A4.75 4.75 0 0 1 9.75 5 4.7 4.7 0 0 1 12 5.86 4.7 4.7 0 0 1 14.25 5A4.75 4.75 0 0 1 19 9.75C19 14.25 12 20 12 20z" transform="scale(1.3)"/></g>
  <g opacity="0.11" transform="translate(600,370) rotate(45)"><path d="M3 12h4l2-6 4 12 2-6h6" transform="scale(1.3)"/></g>
  <g opacity="0.12" transform="translate(720,390) rotate(0)"><path d="M12 2l8 4v6c0 5.25-3.5 8.75-8 10-4.5-1.25-8-4.75-8-10V6zM12 8v6M9 11h6" transform="scale(1.2)"/></g>

  <!-- Row 5 -->
  <g opacity="0.10" transform="translate(50,490) rotate(-10)"><path d="M12 2l8 4v6c0 5.25-3.5 8.75-8 10-4.5-1.25-8-4.75-8-10V6zM12 8v6M9 11h6" transform="scale(1.3)"/></g>
  <g opacity="0.13" transform="translate(180,510) rotate(20)"><path d="M18 2l4 4-3 3-7-7zM12 8l-8 8v4h4l8-8M2 22l4-4" transform="scale(1.2)"/></g>
  <g opacity="0.11" transform="translate(310,485) rotate(0)"><path d="M3 12h4l2-6 4 12 2-6h6" transform="scale(1.4)"/></g>
  <g opacity="0.12" transform="translate(440,505) rotate(-20)"><path d="M9 3h6v6h6v6h-6v6H9v-6H3V9h6z" transform="scale(1.3)"/></g>
  <g opacity="0.10" transform="translate(560,490) rotate(10)"><path d="M10.5 2.5 5 8a4.95 4.95 0 1 0 7 7l5.5-5.5a4.95 4.95 0 0 0-7-7zM8.5 8.5l7 7" transform="scale(1.3)"/></g>
  <g opacity="0.13" transform="translate(690,510) rotate(30)"><path d="M12 20s-7-5.75-7-10.25A4.75 4.75 0 0 1 9.75 5 4.7 4.7 0 0 1 12 5.86 4.7 4.7 0 0 1 14.25 5A4.75 4.75 0 0 1 19 9.75C19 14.25 12 20 12 20z" transform="scale(1.2)"/></g>
</svg>
